<svg version="1.1" id="Layer_1" xmlns="http://www.w3.org/2000/svg" xmlns:xlink="http://www.w3.org/1999/xlink" x="0px" y="0px"
	 width="100%" viewBox="0 0 666 375" enable-background="new 0 0 666 375" xml:space="preserve">
<path fill="#000000" opacity="1.000000" stroke="none" 
	d="
M430.000000,376.000000 
	C286.700928,376.000000 143.901886,376.000000 1.051413,376.000000 
	C1.051413,251.064285 1.051413,126.128555 1.051413,1.096407 
	C222.882416,1.096407 444.764862,1.096407 666.823669,1.096407 
	C666.823669,125.999802 666.823669,250.999878 666.823669,376.000000 
	C588.128479,376.000000 509.314240,376.000000 430.000000,376.000000 
M285.922516,145.161514 
	C285.652710,145.875168 285.382935,146.588821 284.739502,148.290833 
	C280.300507,143.846390 276.357300,139.898361 273.062958,136.599960 
	C268.494690,141.012177 263.892853,145.456818 259.304321,149.888596 
	C265.551880,156.161072 271.982269,162.436249 278.141022,168.967590 
	C279.246277,170.139694 279.946259,172.519012 279.618103,174.086578 
	C277.100037,186.115341 274.293457,198.083954 271.552521,210.065765 
	C269.229431,220.220917 266.874329,230.368759 264.438446,240.931503 
	C271.250366,242.408096 277.467010,243.755661 283.750519,245.117706 
	C288.161163,225.767578 292.440491,206.993637 296.825195,187.757523 
	C303.907410,194.780945 309.748199,201.788940 316.797150,207.232483 
	C324.314880,213.038010 323.849915,219.140503 321.546051,227.127625 
	C318.302124,238.373672 316.347351,249.991562 313.805695,261.613373 
	C320.460571,263.200806 326.543854,264.651886 332.821625,266.149353 
	C335.485168,254.645981 338.053467,243.553894 340.621765,232.461792 
	C341.113434,232.171036 341.605072,231.880264 342.096741,231.589493 
	C345.996338,236.267914 349.895935,240.946335 353.975403,245.840546 
	C359.155548,240.355911 363.481689,235.775467 368.293152,230.681168 
	C361.662384,224.135971 354.778870,217.412735 348.010254,210.575775 
	C347.094849,209.651138 346.034698,208.001419 346.259735,206.947571 
	C349.173950,193.299683 352.313507,179.699951 355.386688,166.085922 
	C357.787689,155.449600 360.175537,144.810303 362.616669,133.961487 
	C355.814148,132.368912 349.729706,130.944458 343.385193,129.459122 
	C338.708099,150.322220 334.115814,170.807053 329.476501,191.501740 
	C328.640045,191.112961 328.124298,191.015610 327.816315,190.709320 
	C319.676758,182.614197 311.488922,174.564667 303.527893,166.296936 
	C302.565430,165.297394 302.331482,162.993927 302.641327,161.474548 
	C304.101166,154.314743 305.915833,147.228271 307.513702,140.095413 
	C309.525970,131.112671 311.450592,122.110313 313.463104,112.887100 
	C306.911957,111.469322 300.779419,110.142136 294.305267,108.741020 
	C291.497620,120.820534 288.763489,132.583618 285.922516,145.161514 
z"/>
<path fill="#FBFBFB" opacity="1.000000" stroke="none" 
	d="
M285.975952,144.754105 
	C288.763489,132.583618 291.497620,120.820534 294.305267,108.741020 
	C300.779419,110.142136 306.911957,111.469322 313.463104,112.887100 
	C311.450592,122.110313 309.525970,131.112671 307.513702,140.095413 
	C305.915833,147.228271 304.101166,154.314743 302.641327,161.474548 
	C302.331482,162.993927 302.565430,165.297394 303.527893,166.296936 
	C311.488922,174.564667 319.676758,182.614197 327.816315,190.709320 
	C328.124298,191.015610 328.640045,191.112961 329.476501,191.501740 
	C334.115814,170.807053 338.708099,150.322220 343.385193,129.459122 
	C349.729706,130.944458 355.814148,132.368912 362.616669,133.961487 
	C360.175537,144.810303 357.787689,155.449600 355.386688,166.085922 
	C352.313507,179.699951 349.173950,193.299683 346.259735,206.947571 
	C346.034698,208.001419 347.094849,209.651138 348.010254,210.575775 
	C354.778870,217.412735 361.662384,224.135971 368.293152,230.681168 
	C363.481689,235.775467 359.155548,240.355911 353.975403,245.840546 
	C349.895935,240.946335 345.996338,236.267914 342.096741,231.589493 
	C341.605072,231.880264 341.113434,232.171036 340.621765,232.461792 
	C338.053467,243.553894 335.485168,254.645981 332.821625,266.149353 
	C326.543854,264.651886 320.460571,263.200806 313.805695,261.613373 
	C316.347351,249.991562 318.302124,238.373672 321.546051,227.127625 
	C323.849915,219.140503 324.314880,213.038010 316.797150,207.232483 
	C309.748199,201.788940 303.907410,194.780945 296.825195,187.757523 
	C292.440491,206.993637 288.161163,225.767578 283.750519,245.117706 
	C277.467010,243.755661 271.250366,242.408096 264.438446,240.931503 
	C266.874329,230.368759 269.229431,220.220917 271.552521,210.065765 
	C274.293457,198.083954 277.100037,186.115341 279.618103,174.086578 
	C279.946259,172.519012 279.246277,170.139694 278.141022,168.967590 
	C271.982269,162.436249 265.551880,156.161072 259.304321,149.888596 
	C263.892853,145.456818 268.494690,141.012177 273.062958,136.599960 
	C276.357300,139.898361 280.300507,143.846390 284.739502,148.290833 
	C285.382935,146.588821 285.652710,145.875168 285.975952,144.754105 
z"/>
</svg>